<mxfile host="app.diagrams.net" modified="2022-07-10T04:53:13.990Z" agent="5.0 (Windows NT 10.0; Win64; x64) AppleWebKit/537.36 (KHTML, like Gecko) Chrome/103.0.0.0 Safari/537.36" etag="8Sq45-2nyTF85tin5cMl" version="20.0.4" type="github">
  <diagram id="lswwXnyDyJwjO7YQp5xs" name="Page-1">
    <mxGraphModel dx="1422" dy="754" grid="0" gridSize="10" guides="1" tooltips="1" connect="1" arrows="1" fold="1" page="1" pageScale="1" pageWidth="827" pageHeight="1169" math="0" shadow="0">
      <root>
        <mxCell id="0" />
        <mxCell id="1" parent="0" />
        <mxCell id="sMjRV97DLjM9PoptpvPs-1" value="Admin" style="shape=umlActor;verticalLabelPosition=bottom;verticalAlign=top;html=1;outlineConnect=0;" vertex="1" parent="1">
          <mxGeometry x="620" y="320" width="30" height="60" as="geometry" />
        </mxCell>
        <mxCell id="sMjRV97DLjM9PoptpvPs-2" value="Customer" style="shape=umlActor;verticalLabelPosition=bottom;verticalAlign=top;html=1;outlineConnect=0;" vertex="1" parent="1">
          <mxGeometry x="110" y="450" width="30" height="60" as="geometry" />
        </mxCell>
        <mxCell id="sMjRV97DLjM9PoptpvPs-3" value="parking attendant" style="shape=umlActor;verticalLabelPosition=bottom;verticalAlign=top;html=1;outlineConnect=0;" vertex="1" parent="1">
          <mxGeometry x="110" y="300" width="30" height="60" as="geometry" />
        </mxCell>
        <mxCell id="sMjRV97DLjM9PoptpvPs-6" value="view account" style="ellipse;whiteSpace=wrap;html=1;" vertex="1" parent="1">
          <mxGeometry x="240" y="260" width="120" height="50" as="geometry" />
        </mxCell>
        <mxCell id="sMjRV97DLjM9PoptpvPs-7" value="login/logout" style="ellipse;whiteSpace=wrap;html=1;" vertex="1" parent="1">
          <mxGeometry x="240" y="380" width="120" height="50" as="geometry" />
        </mxCell>
        <mxCell id="sMjRV97DLjM9PoptpvPs-8" value="update account" style="ellipse;whiteSpace=wrap;html=1;" vertex="1" parent="1">
          <mxGeometry x="240" y="320" width="120" height="50" as="geometry" />
        </mxCell>
        <mxCell id="sMjRV97DLjM9PoptpvPs-9" value="login/logout" style="ellipse;whiteSpace=wrap;html=1;" vertex="1" parent="1">
          <mxGeometry x="240" y="440" width="120" height="50" as="geometry" />
        </mxCell>
        <mxCell id="sMjRV97DLjM9PoptpvPs-11" value="take ticket" style="ellipse;whiteSpace=wrap;html=1;" vertex="1" parent="1">
          <mxGeometry x="240" y="520" width="120" height="50" as="geometry" />
        </mxCell>
        <mxCell id="sMjRV97DLjM9PoptpvPs-12" value="pay ticket" style="ellipse;whiteSpace=wrap;html=1;" vertex="1" parent="1">
          <mxGeometry x="240" y="650" width="120" height="50" as="geometry" />
        </mxCell>
        <mxCell id="sMjRV97DLjM9PoptpvPs-15" value="&amp;lt;&amp;lt; include &amp;gt;&amp;gt;" style="endArrow=block;endSize=16;endFill=0;html=1;rounded=0;exitX=0.5;exitY=0;exitDx=0;exitDy=0;labelBorderColor=none;" edge="1" parent="1" source="sMjRV97DLjM9PoptpvPs-12" target="sMjRV97DLjM9PoptpvPs-11">
          <mxGeometry x="-0.25" width="160" relative="1" as="geometry">
            <mxPoint x="270" y="590" as="sourcePoint" />
            <mxPoint x="430" y="590" as="targetPoint" />
            <Array as="points">
              <mxPoint x="300" y="620" />
            </Array>
            <mxPoint as="offset" />
          </mxGeometry>
        </mxCell>
        <mxCell id="sMjRV97DLjM9PoptpvPs-18" value="add parking attendant" style="ellipse;whiteSpace=wrap;html=1;" vertex="1" parent="1">
          <mxGeometry x="414" y="200" width="120" height="50" as="geometry" />
        </mxCell>
        <mxCell id="sMjRV97DLjM9PoptpvPs-19" value="add/remove parking slot" style="ellipse;whiteSpace=wrap;html=1;" vertex="1" parent="1">
          <mxGeometry x="414" y="130" width="120" height="50" as="geometry" />
        </mxCell>
        <mxCell id="sMjRV97DLjM9PoptpvPs-20" value="" style="endArrow=none;html=1;rounded=0;labelBorderColor=none;exitX=1;exitY=0.3333333333333333;exitDx=0;exitDy=0;exitPerimeter=0;entryX=0;entryY=0.5;entryDx=0;entryDy=0;" edge="1" parent="1" source="sMjRV97DLjM9PoptpvPs-3" target="sMjRV97DLjM9PoptpvPs-6">
          <mxGeometry width="50" height="50" relative="1" as="geometry">
            <mxPoint x="390" y="300" as="sourcePoint" />
            <mxPoint x="440" y="250" as="targetPoint" />
          </mxGeometry>
        </mxCell>
        <mxCell id="sMjRV97DLjM9PoptpvPs-21" value="" style="endArrow=none;html=1;rounded=0;labelBorderColor=none;exitX=1;exitY=0.3333333333333333;exitDx=0;exitDy=0;exitPerimeter=0;entryX=0;entryY=0.5;entryDx=0;entryDy=0;" edge="1" parent="1" source="sMjRV97DLjM9PoptpvPs-3" target="sMjRV97DLjM9PoptpvPs-8">
          <mxGeometry width="50" height="50" relative="1" as="geometry">
            <mxPoint x="390" y="300" as="sourcePoint" />
            <mxPoint x="440" y="250" as="targetPoint" />
          </mxGeometry>
        </mxCell>
        <mxCell id="sMjRV97DLjM9PoptpvPs-22" value="" style="endArrow=none;html=1;rounded=0;labelBorderColor=none;entryX=0;entryY=0.5;entryDx=0;entryDy=0;" edge="1" parent="1" target="sMjRV97DLjM9PoptpvPs-7">
          <mxGeometry width="50" height="50" relative="1" as="geometry">
            <mxPoint x="140" y="320" as="sourcePoint" />
            <mxPoint x="250" y="355" as="targetPoint" />
          </mxGeometry>
        </mxCell>
        <mxCell id="sMjRV97DLjM9PoptpvPs-23" value="" style="endArrow=none;html=1;rounded=0;labelBorderColor=none;entryX=0;entryY=0.5;entryDx=0;entryDy=0;exitX=1;exitY=0.3333333333333333;exitDx=0;exitDy=0;exitPerimeter=0;" edge="1" parent="1" source="sMjRV97DLjM9PoptpvPs-3" target="sMjRV97DLjM9PoptpvPs-9">
          <mxGeometry width="50" height="50" relative="1" as="geometry">
            <mxPoint x="140" y="380" as="sourcePoint" />
            <mxPoint x="240" y="460" as="targetPoint" />
          </mxGeometry>
        </mxCell>
        <mxCell id="sMjRV97DLjM9PoptpvPs-24" value="" style="endArrow=block;endSize=16;endFill=0;html=1;rounded=0;labelBorderColor=none;entryX=0.5;entryY=0;entryDx=0;entryDy=0;entryPerimeter=0;" edge="1" parent="1" target="sMjRV97DLjM9PoptpvPs-2">
          <mxGeometry width="160" relative="1" as="geometry">
            <mxPoint x="120" y="390" as="sourcePoint" />
            <mxPoint x="160" y="420" as="targetPoint" />
            <Array as="points" />
          </mxGeometry>
        </mxCell>
        <mxCell id="sMjRV97DLjM9PoptpvPs-25" value="" style="endArrow=none;html=1;rounded=0;labelBorderColor=none;entryX=0;entryY=0.5;entryDx=0;entryDy=0;exitX=1;exitY=0.3333333333333333;exitDx=0;exitDy=0;exitPerimeter=0;" edge="1" parent="1" source="sMjRV97DLjM9PoptpvPs-2" target="sMjRV97DLjM9PoptpvPs-11">
          <mxGeometry width="50" height="50" relative="1" as="geometry">
            <mxPoint x="170" y="580" as="sourcePoint" />
            <mxPoint x="220" y="530" as="targetPoint" />
          </mxGeometry>
        </mxCell>
        <mxCell id="sMjRV97DLjM9PoptpvPs-26" value="" style="endArrow=none;html=1;rounded=0;labelBorderColor=none;entryX=0;entryY=0.5;entryDx=0;entryDy=0;exitX=1;exitY=0.3333333333333333;exitDx=0;exitDy=0;exitPerimeter=0;" edge="1" parent="1" source="sMjRV97DLjM9PoptpvPs-2" target="sMjRV97DLjM9PoptpvPs-12">
          <mxGeometry width="50" height="50" relative="1" as="geometry">
            <mxPoint x="170" y="600" as="sourcePoint" />
            <mxPoint x="220" y="550" as="targetPoint" />
          </mxGeometry>
        </mxCell>
        <mxCell id="sMjRV97DLjM9PoptpvPs-27" value="" style="endArrow=none;html=1;rounded=0;labelBorderColor=none;entryX=0;entryY=0.3333333333333333;entryDx=0;entryDy=0;entryPerimeter=0;exitX=1;exitY=0.5;exitDx=0;exitDy=0;" edge="1" parent="1" source="sMjRV97DLjM9PoptpvPs-19" target="sMjRV97DLjM9PoptpvPs-1">
          <mxGeometry width="50" height="50" relative="1" as="geometry">
            <mxPoint x="390" y="400" as="sourcePoint" />
            <mxPoint x="440" y="350" as="targetPoint" />
          </mxGeometry>
        </mxCell>
        <mxCell id="sMjRV97DLjM9PoptpvPs-28" value="" style="endArrow=none;html=1;rounded=0;labelBorderColor=none;entryX=0;entryY=0.3333333333333333;entryDx=0;entryDy=0;entryPerimeter=0;exitX=1;exitY=0.5;exitDx=0;exitDy=0;" edge="1" parent="1" source="sMjRV97DLjM9PoptpvPs-18" target="sMjRV97DLjM9PoptpvPs-1">
          <mxGeometry width="50" height="50" relative="1" as="geometry">
            <mxPoint x="390" y="400" as="sourcePoint" />
            <mxPoint x="440" y="350" as="targetPoint" />
          </mxGeometry>
        </mxCell>
        <mxCell id="sMjRV97DLjM9PoptpvPs-29" value="" style="endArrow=none;html=1;rounded=0;labelBorderColor=none;entryX=0;entryY=0.3333333333333333;entryDx=0;entryDy=0;entryPerimeter=0;exitX=1;exitY=0.5;exitDx=0;exitDy=0;" edge="1" parent="1" source="sMjRV97DLjM9PoptpvPs-6" target="sMjRV97DLjM9PoptpvPs-1">
          <mxGeometry width="50" height="50" relative="1" as="geometry">
            <mxPoint x="390" y="400" as="sourcePoint" />
            <mxPoint x="440" y="350" as="targetPoint" />
          </mxGeometry>
        </mxCell>
        <mxCell id="sMjRV97DLjM9PoptpvPs-30" value="" style="endArrow=none;html=1;rounded=0;labelBorderColor=none;entryX=0;entryY=0.3333333333333333;entryDx=0;entryDy=0;entryPerimeter=0;exitX=1;exitY=0.5;exitDx=0;exitDy=0;" edge="1" parent="1" source="sMjRV97DLjM9PoptpvPs-8" target="sMjRV97DLjM9PoptpvPs-1">
          <mxGeometry width="50" height="50" relative="1" as="geometry">
            <mxPoint x="390" y="400" as="sourcePoint" />
            <mxPoint x="440" y="350" as="targetPoint" />
          </mxGeometry>
        </mxCell>
        <mxCell id="sMjRV97DLjM9PoptpvPs-31" value="" style="endArrow=none;html=1;rounded=0;labelBorderColor=none;exitX=1;exitY=0.5;exitDx=0;exitDy=0;" edge="1" parent="1" source="sMjRV97DLjM9PoptpvPs-7">
          <mxGeometry width="50" height="50" relative="1" as="geometry">
            <mxPoint x="390" y="400" as="sourcePoint" />
            <mxPoint x="620" y="340" as="targetPoint" />
          </mxGeometry>
        </mxCell>
        <mxCell id="sMjRV97DLjM9PoptpvPs-32" value="" style="endArrow=none;html=1;rounded=0;labelBorderColor=none;exitX=1;exitY=0.5;exitDx=0;exitDy=0;entryX=0;entryY=0.3333333333333333;entryDx=0;entryDy=0;entryPerimeter=0;" edge="1" parent="1" source="sMjRV97DLjM9PoptpvPs-9" target="sMjRV97DLjM9PoptpvPs-1">
          <mxGeometry width="50" height="50" relative="1" as="geometry">
            <mxPoint x="390" y="400" as="sourcePoint" />
            <mxPoint x="440" y="350" as="targetPoint" />
          </mxGeometry>
        </mxCell>
      </root>
    </mxGraphModel>
  </diagram>
</mxfile>
